# xmcd
#
# Track frame offsets:
#	150
#	11797
#	25486
#	37246
#	49551
#	60568
#	69183
#	79417
#	88672
#	99658
#	112156
#	120990
#	131923
#
# Disc length: 1899 seconds
#
# Revision: 1
# Processed by: cddbd v1.5.2PL0 Copyright (c) Steve Scherf et al.
# Submitted via: audiograbber 1.83.01
#
DISCID=b407690d
DTITLE=Patsy Cline - The Best Of Patsy Cline (DISK 1)
DYEAR=2008
DGENRE=Country
TTITLE0=Walkin' After Midnigth
TTITLE1=A Church, A Courtroom, And Then Goodbye
TTITLE2=Today, Tomorrow and Forever
TTITLE3=A Poor Man's Riches (Or a Rich Man's Gold)
TTITLE4=A Stranger in My Arms
TTITLE5=Ain't No Wheels on This Ship (We Can't Rol)
TTITLE6=Too Many Secrets
TTITLE7=Come on in
TTITLE8=Don't Ever Leave Me Again
TTITLE9=Fingerprints
TTITLE10=Try Again
TTITLE11=Hidin' Out
TTITLE12=Honky Tonk Merry Go Round
EXTD=
EXTT0=
EXTT1=
EXTT2=
EXTT3=
EXTT4=
EXTT5=
EXTT6=
EXTT7=
EXTT8=
EXTT9=
EXTT10=
EXTT11=
EXTT12=
PLAYORDER=
